<svg xmlns="http://www.w3.org/2000/svg" viewBox="0 0 1200 800" role="img" aria-label="Illustrated residential window reflecting sky and trees">
  <defs>
    <linearGradient id="glass" x1="0" y1="0" x2="1" y2="1"><stop stop-color="#b6d1c6"/><stop offset=".54" stop-color="#d3ddd0"/><stop offset="1" stop-color="#9bbda6"/></linearGradient>
    <linearGradient id="sky" x1="0" y1="0" x2="0" y2="1"><stop stop-color="#9dbfc0"/><stop offset="1" stop-color="#e5e9d5"/></linearGradient>
    <linearGradient id="wall" x1="0" y1="0" x2="1" y2="1"><stop stop-color="#e5ddd0"/><stop offset="1" stop-color="#f3eee2"/></linearGradient>
    <linearGradient id="frame" x1="0" y1="0" x2="1" y2="1"><stop stop-color="#e8e2d4"/><stop offset=".52" stop-color="#c8c2b2"/><stop offset="1" stop-color="#f9f6ee"/></linearGradient>
    <filter id="blur"><feGaussianBlur stdDeviation="13"/></filter>
    <filter id="shadow"><feDropShadow dx="0" dy="15" stdDeviation="17" flood-color="#3d493b" flood-opacity=".27"/></filter>
    <clipPath id="pane"><rect x="81" y="57" width="1038" height="686" rx="4"/></clipPath>
  </defs>
  <rect width="1200" height="800" fill="url(#wall)"/>
  <g filter="url(#shadow)"><rect x="49" y="26" width="1102" height="748" rx="10" fill="url(#frame)"/><rect x="81" y="57" width="1038" height="686" fill="url(#glass)"/></g>
  <g clip-path="url(#pane)">
    <rect x="81" y="57" width="1038" height="686" fill="url(#sky)"/>
    <g opacity=".66" filter="url(#blur)" fill="#f3f5df"><ellipse cx="295" cy="144" rx="190" ry="40"/><ellipse cx="760" cy="231" rx="280" ry="35"/></g>
    <path d="M70 610 C207 526 305 542 420 588 C530 635 644 535 772 566 C892 596 1012 514 1145 550 L1145 800 L70 800 Z" fill="#729978"/>
    <path d="M67 674 C238 579 328 646 483 625 C647 602 723 682 871 632 C996 589 1057 634 1135 601 L1135 800 L67 800 Z" fill="#547d5d"/>
    <g fill="#365f47" opacity=".82">
      <path d="M145 800 V384 h12 V800Z"/><ellipse cx="151" cy="350" rx="120" ry="143"/><ellipse cx="91" cy="431" rx="76" ry="114"/><ellipse cx="203" cy="424" rx="90" ry="103"/>
      <path d="M987 800 V342 h15 V800Z"/><ellipse cx="991" cy="294" rx="143" ry="170"/><ellipse cx="1110" cy="390" rx="105" ry="120"/><ellipse cx="876" cy="423" rx="108" ry="130"/>
    </g>
    <g fill="#87aa7c" opacity=".72"><ellipse cx="77" cy="332" rx="70" ry="94"/><ellipse cx="237" cy="391" rx="73" ry="101"/><ellipse cx="901" cy="317" rx="70" ry="91"/><ellipse cx="1074" cy="294" rx="79" ry="104"/></g>
    <path d="M159 67 C313 254 351 429 309 743" fill="none" stroke="#f8fff5" stroke-width="29" opacity=".16"/>
    <path d="M789 61 C709 264 733 485 881 739" fill="none" stroke="#fafff7" stroke-width="43" opacity=".18"/>
    <path d="M121 92 L320 92 L129 617Z" fill="#fff" opacity=".075"/>
    <rect x="81" y="57" width="1038" height="686" fill="#edf5df" opacity=".07"/>
  </g>
  <g fill="url(#frame)"><rect x="583" y="57" width="34" height="686"/><rect x="81" y="386" width="1038" height="29"/></g>
  <g fill="none" stroke="#f7f3e8" stroke-width="5" opacity=".75"><rect x="82" y="58" width="1036" height="685"/><path d="M601 58 V743 M82 401 H1119"/></g>
  <rect x="56" y="34" width="1088" height="732" rx="6" fill="none" stroke="#f8f4eb" stroke-width="11" opacity=".8"/>
</svg>
